<?xml version="1.0" encoding="UTF-8" standalone="no"?>
<!-- Created with Inkscape (http://www.inkscape.org/) -->

<svg
   xmlns:dc="http://purl.org/dc/elements/1.1/"
   xmlns:cc="http://creativecommons.org/ns#"
   xmlns:rdf="http://www.w3.org/1999/02/22-rdf-syntax-ns#"
   xmlns:svg="http://www.w3.org/2000/svg"
   xmlns="http://www.w3.org/2000/svg"
   xmlns:sodipodi="http://sodipodi.sourceforge.net/DTD/sodipodi-0.dtd"
   xmlns:inkscape="http://www.inkscape.org/namespaces/inkscape"
   version="1.1"
   id="svg853"
   xml:space="preserve"
   width="400"
   height="400"
   viewBox="0 0 400 400"
   sodipodi:docname="CarrawayLovesGatsby.svg"
   inkscape:version="0.92.4 5da689c313, 2019-01-14"><metadata
     id="metadata859"><rdf:RDF><cc:Work
         rdf:about=""><dc:format>image/svg+xml</dc:format><dc:type
           rdf:resource="http://purl.org/dc/dcmitype/StillImage" /><dc:title></dc:title></cc:Work></rdf:RDF></metadata><defs
     id="defs857"><clipPath
       clipPathUnits="userSpaceOnUse"
       id="clipPath869"><path
         d="M 0,300 H 300 V 0 H 0 Z"
         id="path867"
         inkscape:connector-curvature="0" /></clipPath></defs><sodipodi:namedview
     pagecolor="#ffffff"
     bordercolor="#666666"
     borderopacity="1"
     objecttolerance="10"
     gridtolerance="10"
     guidetolerance="10"
     inkscape:pageopacity="0"
     inkscape:pageshadow="2"
     inkscape:window-width="1870"
     inkscape:window-height="1145"
     id="namedview855"
     showgrid="false"
     inkscape:zoom="2.29"
     inkscape:cx="200"
     inkscape:cy="200"
     inkscape:window-x="50"
     inkscape:window-y="27"
     inkscape:window-maximized="1"
     inkscape:current-layer="g861" /><g
     id="g861"
     inkscape:groupmode="layer"
     inkscape:label="CarrawayLovesGatsby"
     transform="matrix(1.3333333,0,0,-1.3333333,0,400)"><g
       id="g863"><g
         id="g865"
         clip-path="url(#clipPath869)"><g
           id="g871"
           transform="translate(239.6855,120.1924)"><path
             d="m 0,0 -36.493,36.493 c 3.064,13.651 15.322,23.958 29.807,23.958 10.308,0 19.222,-5.015 24.793,-12.536 L 13.929,44.293 C 9.193,50.701 1.672,54.879 -6.686,54.879 c -10.864,0 -20.057,-6.964 -23.678,-16.714 L 1.672,6.129 c 8.078,2.786 14.207,9.75 16.157,18.107 H 4.457 v 5.572 h 19.5 C 23.957,15.322 13.65,3.064 0,0 m -28.414,8.079 c -5.85,5.85 -8.914,13.65 -8.914,21.171 L -6.964,-0.835 c -7.8,0.278 -15.6,3.064 -21.45,8.914 m 21.728,60.729 c -21.45,0 -39,-17.55 -39,-39 0,-21.451 17.55,-39 39,-39 21.451,0 39,17.549 39,39 0,21.45 -17.549,39 -39,39"
             style="fill:#663399;fill-opacity:1;fill-rule:nonzero;stroke:none"
             id="path873"
             inkscape:connector-curvature="0" /></g><g
           id="g875"
           transform="translate(189.0713,168.1357)"><path
             d="m 0,0 c -8.549,22.617 -36.302,12.471 -38.868,1.175 -3.529,12.037 -30.601,21.017 -38.863,-1.191 -9.199,-24.735 35.654,-46.933 38.864,-50.571 C -35.662,-47.697 9.196,-24.332 0,0"
             style="fill:#ff5a79;fill-opacity:1;fill-rule:nonzero;stroke:none"
             id="path877"
             inkscape:connector-curvature="0" /></g><g
           id="g879"
           transform="translate(67,189)"><path
             d="m 0,0 c 21.539,0 39,-17.461 39,-39 0,-21.539 -17.461,-39 -39,-39 -21.539,0 -39,17.461 -39,39 0,21.539 17.461,39 39,39"
             style="fill:#0e8de6;fill-opacity:1;fill-rule:nonzero;stroke:none"
             id="path881"
             inkscape:connector-curvature="0" /></g><g
           id="g883"
           transform="translate(45.2715,128.2715)"><path
             d="M 0,0 C -5.85,5.85 -8.915,13.65 -8.915,21.171 L 21.45,-8.914 C 13.65,-8.636 5.85,-5.85 0,0"
             style="fill:#ffffff;fill-opacity:1;fill-rule:nonzero;stroke:none"
             id="path885"
             inkscape:connector-curvature="0" /></g><g
           id="g887"
           transform="translate(91.793,132.0869)"><path
             d="M 0,0 C -2.007,-2.969 -8.903,-9.977 -18.198,-11.803 L -54.6,24.599 c 3.064,13.65 15.321,23.957 29.807,23.957 10.307,0 19.221,-5.014 24.793,-12.536 l -4.179,-3.621 c -4.736,6.407 -12.257,10.585 -20.614,10.585 -10.864,0 -20.057,-6.964 -23.679,-16.714 l 33.973,-30.96 c 5.596,2.5 7.312,4.902 10.32,8.312 z"
             style="fill:#ffffff;fill-opacity:1;fill-rule:nonzero;stroke:none"
             id="path889"
             inkscape:connector-curvature="0" /></g></g></g></g></svg>