<?xml version="1.0" encoding="UTF-8" standalone="no"?>
<!-- Created with Inkscape (http://www.inkscape.org/) -->

<svg
   xmlns:dc="http://purl.org/dc/elements/1.1/"
   xmlns:cc="http://creativecommons.org/ns#"
   xmlns:rdf="http://www.w3.org/1999/02/22-rdf-syntax-ns#"
   xmlns:svg="http://www.w3.org/2000/svg"
   xmlns="http://www.w3.org/2000/svg"
   xmlns:sodipodi="http://sodipodi.sourceforge.net/DTD/sodipodi-0.dtd"
   xmlns:inkscape="http://www.inkscape.org/namespaces/inkscape"
   version="1.1"
   id="svg891"
   xml:space="preserve"
   width="2133.3333"
   height="2133.3333"
   viewBox="0 0 2133.3333 2133.3333"
   sodipodi:docname="LinkRotBitRotTiVoHDD.svg"
   inkscape:version="0.92.4 5da689c313, 2019-01-14"><metadata
     id="metadata897"><rdf:RDF><cc:Work
         rdf:about=""><dc:format>image/svg+xml</dc:format><dc:type
           rdf:resource="http://purl.org/dc/dcmitype/StillImage" /><dc:title></dc:title></cc:Work></rdf:RDF></metadata><defs
     id="defs895"><clipPath
       clipPathUnits="userSpaceOnUse"
       id="clipPath915"><path
         d="M 0,1600 H 1600 V 0 H 0 Z"
         id="path913"
         inkscape:connector-curvature="0" /></clipPath></defs><sodipodi:namedview
     pagecolor="#ffffff"
     bordercolor="#666666"
     borderopacity="1"
     objecttolerance="10"
     gridtolerance="10"
     guidetolerance="10"
     inkscape:pageopacity="0"
     inkscape:pageshadow="2"
     inkscape:window-width="1870"
     inkscape:window-height="1145"
     id="namedview893"
     showgrid="false"
     inkscape:zoom="0.110625"
     inkscape:cx="1066.6666"
     inkscape:cy="1066.6666"
     inkscape:window-x="50"
     inkscape:window-y="27"
     inkscape:window-maximized="1"
     inkscape:current-layer="g899" /><g
     id="g899"
     inkscape:groupmode="layer"
     inkscape:label="LinkRotBitRotTiVoHDD"
     transform="matrix(1.3333333,0,0,-1.3333333,0,2133.3333)"><g
       id="g901"
       transform="translate(1067.0004,1600.0001)"><path
         d="M 0,0 -534.001,-1600 H 533 V 0 Z"
         style="fill:#403d58;fill-opacity:1;fill-rule:nonzero;stroke:none"
         id="path903"
         inkscape:connector-curvature="0" /></g><g
       id="g905"
       transform="translate(0,1600.0001)"><path
         d="M 0,0 V -1600 H 533 L 1067,0 Z"
         style="fill:#398277;fill-opacity:1;fill-rule:nonzero;stroke:none"
         id="path907"
         inkscape:connector-curvature="0" /></g><g
       id="g909"><g
         id="g911"
         clip-path="url(#clipPath915)"><g
           id="g917"
           transform="translate(850.5225,899.5889)"><path
             d="m 0,0 c 1.816,-1.942 12.199,-2.092 22.735,-2.766 7.152,-0.456 16.128,-1.254 22.864,-2.016 23.756,-2.688 45.272,-7.172 60.513,-16.584 9.842,-6.078 15.092,-11.507 19.273,-20.919 5.647,-12.704 4.034,-31.076 1.119,-42.956 -1.084,-5.518 -12.548,-46.392 -18.151,-63.874 -5.626,-17.554 -25.102,-72.615 -37.65,-86.364 -11.22,-12.292 -19.278,-18.077 -48.413,-15.985 -11.082,1.173 -30.156,2.86 -41.24,4.033 -1.01,-0.571 -3.16,-8.449 -3.591,-10.27 -1.912,-8.123 -2.43,-21.111 -1.907,-31.275 0.163,-3.222 0.484,-6.931 0.914,-9.653 2.42,-1.303 7.088,-1.876 11.133,-2.643 5.13,-0.478 13.421,-1.199 18.545,-1.674 7.82,-0.893 13.031,0.578 19.888,-2.234 8.019,-3.292 13.455,-8.701 16.757,-16.757 1.206,-2.942 5.974,-16.649 5.139,-20.223 -0.457,-1.954 -2.079,-3.81 -3.49,-4.857 -5.951,-4.416 -19.417,-7.158 -29.858,-4.75 -18.154,4.188 -34.645,11.024 -49.604,18.658 -5.067,2.581 -9.837,4.728 -14.58,7.54 -1.382,0.821 -4.355,2.401 -5.248,3.406 -0.707,0.791 2.283,7.515 3.015,9.272 2.653,6.34 4.821,11.523 7.041,18.212 5.808,17.537 3.936,32.53 0.301,47.992 -7.918,0 -11.954,0 -20.919,0.152 -0.914,-3.04 -0.599,-2.539 -1.28,-5.804 -1.975,-7.708 -2.681,-15.312 -4.302,-23.473 -0.867,-4.563 -1.364,-9.334 -2.233,-13.898 -1.705,-10.129 10.174,-19.763 6.031,-29.326 -2.653,-6.127 -16.465,-11.252 -22.959,-14.075 -11.028,-4.794 -19.603,-8.044 -32.679,-12.736 -6.757,-2.426 -15.88,-5.229 -23.29,-6.871 -11.427,-2.534 -27.689,4.485 -32.178,10.282 -5.295,6.832 2.84,15.487 6.477,19.824 8.716,10.391 24.918,24.468 38.767,26.926 7.322,1.296 17.126,-0.345 22.684,-2.238 3.609,-1.224 6.995,-3.663 10.387,-0.779 6.676,5.671 8.305,13.542 10.25,25.416 0.555,3.383 1.173,14.915 0.923,18.766 -0.282,4.334 -0.117,3.348 -0.956,7.536 -25.999,-0.298 -62.052,-3.348 -80.686,7.771 -15.533,9.27 -20.324,26.052 -25.997,43.478 -12.551,38.549 -21.147,69.748 -27.792,109.372 -3.357,20.025 -4.265,36.726 4.304,51.379 7.953,13.6 25.729,20.338 40.523,23.924 15.171,3.679 29.135,6.724 48.918,9.308 7.3,0.781 16.75,1.226 24.593,1.898 12.104,0.447 20.098,0.843 30.875,0.855 0.553,36.421 -12.677,57.999 -34.945,71.583 -6.741,4.11 -22.237,10.696 -32.794,7.514 -8.433,-2.544 -15.668,-10.784 -20.611,-16.925 -1.966,-2.439 -6.789,-7.052 -11.658,-5.845 -4.684,1.164 -7.848,4.503 -10.301,7.955 -10.632,14.969 -7.713,42.84 1.043,57.759 1.93,3.285 3.767,6.817 6.652,9.128 1.961,1.572 4.047,3.126 6.519,4.173 5.327,2.253 12.569,1.073 16.297,-1.825 3.546,-2.756 5.391,-8.692 7.303,-13.038 2.627,-5.98 6.936,-11.65 11.998,-15.253 4.803,-3.42 10.869,-5.225 16.689,-7.694 6.305,-2.674 12.53,-5.759 18.121,-9.256 26.844,-16.789 46.403,-44.931 46.366,-88.381 11.084,-0.261 21.828,-0.41 32.91,-0.671 0.608,2.651 1.215,5.301 1.825,7.952 1.553,5.657 2.737,11.124 4.563,16.298 8.181,23.156 17.48,38.638 31.16,55.935 3.739,3.999 7.474,7.997 11.214,11.996 3.805,3.061 7.993,6.843 10.042,11.604 1.207,2.795 2.128,7.274 1.434,11.343 -2.045,11.984 -7.524,24.896 2.739,32.466 2.129,1.572 5.533,3.092 9.518,2.348 2.043,-0.608 4.087,-1.217 6.127,-1.826 14.143,-6.113 23.757,-19.218 28.181,-35.28 1.733,-6.286 2.726,-17.185 -1.116,-22.122 C 82.358,88.519 75.503,87.467 70.609,88.257 62.435,89.579 51.922,89.418 46.701,85.578 39.719,80.439 35.696,75.914 29.147,68.026 17.266,53.732 8.842,37.813 1.85,17.934 -0.133,12.313 -1.207,1.292 0,0"
             style="fill:#000000;fill-opacity:1;fill-rule:nonzero;stroke:none"
             id="path919"
             inkscape:connector-curvature="0" /></g><g
           id="g921"
           transform="translate(1027.8691,886.5391)"><path
             d="M 0,0 C 4.648,10.507 16.928,15.249 27.421,10.587 37.915,5.933 42.649,-6.374 37.995,-16.88 33.347,-27.394 21.067,-32.135 10.567,-27.474 0.087,-22.819 -4.648,-10.52 0,0 m -243.312,195.803 c 8.293,7.946 21.449,7.631 29.387,-0.676 7.926,-8.326 7.625,-21.495 -0.688,-29.433 -8.293,-7.945 -21.449,-7.638 -29.387,0.682 -7.919,8.313 -7.619,21.482 0.688,29.427 m -230.725,-350.287 c -6.072,22.386 -9.751,45.859 -9.751,70.196 0,9.289 0.501,18.472 1.465,27.494 l 44.776,19.897 c 9.564,4.247 13.885,15.456 9.638,25.04 l -9.223,20.853 c 0,0 -23.965,24.815 -19.016,32.933 52.399,85.954 124.366,114.716 180.814,125.31 l 32.009,-33.58 c 7.236,-7.578 19.221,-7.859 26.792,-0.616 l 35.815,34.256 c 75.046,-13.971 138.583,-60.686 175.2,-124.777 l -24.518,-55.376 c -4.234,-9.584 0.087,-20.793 9.644,-25.04 L 26.812,-58.86 c 0.817,-8.38 1.245,-16.848 1.245,-25.428 0,-6.394 0.193,-12.767 -0.703,-19 -5.991,-41.713 -16.657,-70.66 -49.003,-132.549 -5.651,-10.81 -15.163,-19.12 -23.703,-27.809 l -43.974,9.451 c -10.239,2.194 -20.312,-4.321 -22.505,-14.579 l -10.434,-48.689 c -32.196,-14.613 -67.95,-22.732 -105.604,-22.732 -38.517,0 -75.047,8.52 -107.818,23.756 l -10.427,48.687 c -2.194,10.246 -12.266,16.773 -22.499,14.573 l -42.984,-9.229 c -7.979,8.213 -18.912,18.273 -22.224,26.197 0,0 -32.255,52.376 -40.216,81.727 M -457.938,1.01 c 4.654,-10.507 -0.081,-22.819 -10.574,-27.468 -10.494,-4.661 -22.773,0.081 -27.428,10.594 -4.655,10.514 0.08,22.806 10.574,27.468 10.5,4.655 22.772,-0.081 27.428,-10.594 m 79.34,-321.723 c -11.223,-2.422 -22.271,4.734 -24.686,15.978 -2.401,11.261 4.736,22.317 15.958,24.738 11.222,2.401 22.278,-4.755 24.686,-15.998 2.401,-11.235 -4.742,-22.311 -15.958,-24.718 m 299.257,-1.016 c -11.222,2.42 -18.358,13.482 -15.951,24.738 2.401,11.242 13.457,18.398 24.673,15.977 11.223,-2.401 18.372,-13.483 15.964,-24.718 -2.408,-11.236 -13.47,-18.399 -24.686,-15.997 m 196.69,243.781 -29.387,18.192 c -0.248,2.862 -0.528,5.718 -0.836,8.56 l 25.254,23.555 c 2.568,2.394 3.719,5.939 3.022,9.37 -0.674,3.444 -3.089,6.28 -6.373,7.503 L 76.746,1.304 C 75.937,4.1 75.087,6.875 74.218,9.638 l 20.137,27.968 c 2.053,2.843 2.475,6.541 1.137,9.785 -1.338,3.23 -4.26,5.544 -7.718,6.113 l -34.042,5.538 c -1.324,2.581 -2.702,5.123 -4.093,7.644 l 14.305,31.399 c 1.465,3.197 1.164,6.916 -0.789,9.818 -1.946,2.916 -5.243,4.622 -8.76,4.488 l -34.551,-1.203 c -1.786,2.233 -3.606,4.447 -5.458,6.62 l 7.939,33.654 c 0.802,3.417 -0.208,6.996 -2.695,9.477 -2.469,2.475 -6.053,3.498 -9.471,2.695 l -33.647,-7.932 c -2.181,1.846 -4.395,3.672 -6.635,5.458 l 1.211,34.549 c 0.134,3.499 -1.572,6.822 -4.488,8.762 -2.923,1.952 -6.621,2.247 -9.812,0.796 l -31.393,-14.312 c -2.535,1.39 -5.077,2.768 -7.645,4.099 l -5.551,34.049 c -0.561,3.45 -2.876,6.38 -6.113,7.717 -3.231,1.345 -6.936,0.91 -9.777,-1.137 l -27.991,-20.137 c -2.755,0.876 -5.524,1.719 -8.319,2.521 l -12.072,32.289 c -1.224,3.291 -4.06,5.706 -7.504,6.388 -3.438,0.675 -6.976,-0.469 -9.363,-3.023 l -23.556,-25.274 c -2.843,0.314 -5.705,0.602 -8.561,0.836 l -18.191,29.393 c -1.84,2.977 -5.097,4.789 -8.601,4.789 -3.505,0 -6.762,-1.812 -8.594,-4.789 l -18.192,-29.393 c -2.863,-0.234 -5.725,-0.522 -8.567,-0.836 l -23.562,25.274 c -2.388,2.554 -5.933,3.698 -9.363,3.023 -3.445,-0.689 -6.281,-3.097 -7.505,-6.388 l -12.072,-32.289 c -2.795,-0.802 -5.564,-1.651 -8.326,-2.521 l -27.983,20.137 c -2.842,2.053 -6.548,2.488 -9.785,1.137 -3.23,-1.337 -5.551,-4.267 -6.113,-7.717 l -5.551,-34.049 c -2.568,-1.331 -5.109,-2.702 -7.644,-4.099 l -31.394,14.312 c -3.19,1.458 -6.909,1.156 -9.812,-0.796 -2.916,-1.94 -4.621,-5.263 -4.487,-8.762 l 1.204,-34.549 c -2.234,-1.786 -4.448,-3.612 -6.635,-5.458 l -33.647,7.932 c -3.418,0.796 -7.003,-0.22 -9.477,-2.695 -2.488,-2.481 -3.499,-6.059 -2.696,-9.477 l 7.925,-33.653 c -1.838,-2.181 -3.658,-4.388 -5.443,-6.621 l -34.551,1.203 c -3.485,0.1 -6.815,-1.572 -8.761,-4.488 -1.953,-2.902 -2.247,-6.621 -0.796,-9.818 l 14.312,-31.399 c -1.391,-2.521 -2.769,-5.063 -4.099,-7.644 l -34.043,-5.538 c -3.457,-0.562 -6.373,-2.876 -7.718,-6.113 -1.338,-3.244 -0.903,-6.942 1.137,-9.785 l 20.138,-27.968 c -0.876,-2.763 -1.726,-5.538 -2.528,-8.334 l -32.29,-12.071 c -3.277,-1.224 -5.692,-4.06 -6.374,-7.504 -0.682,-3.438 0.461,-6.976 3.023,-9.37 l 25.261,-23.555 c -0.314,-2.842 -0.595,-5.705 -0.836,-8.56 l -29.388,-18.192 c -2.976,-1.839 -4.788,-5.089 -4.788,-8.6 0,-3.512 1.812,-6.762 4.788,-8.595 l 29.388,-18.191 c 0.241,-2.862 0.522,-5.718 0.836,-8.561 l -25.261,-23.561 c -2.562,-2.388 -3.705,-5.932 -3.023,-9.363 0.682,-3.445 3.097,-6.273 6.374,-7.504 l 32.29,-12.072 c 0.802,-2.795 1.652,-5.571 2.528,-8.333 l -20.138,-27.975 c -2.046,-2.85 -2.481,-6.548 -1.137,-9.778 1.345,-3.244 4.267,-5.558 7.725,-6.113 l 34.036,-5.538 c 1.33,-2.581 2.695,-5.123 4.099,-7.657 l -14.312,-31.387 c -1.458,-3.19 -1.157,-6.902 0.796,-9.818 1.953,-2.922 5.276,-4.628 8.761,-4.487 l 34.537,1.21 c 1.799,-2.247 3.612,-4.447 5.457,-6.634 l -7.925,-33.66 c -0.802,-3.412 0.208,-6.976 2.696,-9.457 2.467,-2.495 6.059,-3.492 9.477,-2.689 l 33.647,7.925 c 2.187,-1.859 4.401,-3.664 6.635,-5.443 l -1.204,-34.557 c -0.134,-3.498 1.571,-6.816 4.487,-8.768 2.903,-1.946 6.622,-2.241 9.812,-0.783 l 31.394,14.306 c 2.528,-1.405 5.069,-2.769 7.644,-4.1 l 5.551,-34.028 c 0.562,-3.464 2.876,-6.394 6.113,-7.725 3.231,-1.344 6.943,-0.909 9.785,1.131 l 27.97,20.15 c 2.762,-0.876 5.537,-1.732 8.333,-2.535 l 12.072,-32.275 c 1.223,-3.277 4.059,-5.705 7.504,-6.374 3.437,-0.695 6.975,0.455 9.363,3.023 l 23.562,25.26 c 2.843,-0.327 5.705,-0.601 8.567,-0.855 l 18.192,-29.387 c 1.833,-2.963 5.09,-4.789 8.595,-4.789 3.503,0 6.761,1.819 8.6,4.789 l 18.192,29.387 c 2.862,0.254 5.718,0.528 8.56,0.855 l 23.556,-25.26 c 2.387,-2.568 5.932,-3.718 9.363,-3.023 3.444,0.676 6.28,3.097 7.504,6.374 l 12.072,32.275 c 2.796,0.803 5.571,1.659 8.333,2.535 l 27.977,-20.15 c 2.843,-2.04 6.548,-2.475 9.777,-1.131 3.237,1.331 5.552,4.268 6.113,7.725 l 5.551,34.028 c 2.569,1.331 5.111,2.716 7.645,4.1 l 31.394,-14.306 c 3.19,-1.458 6.902,-1.163 9.811,0.783 2.916,1.952 4.615,5.263 4.488,8.768 l -1.204,34.557 c 2.234,1.785 4.447,3.584 6.628,5.444 l 33.647,-7.926 c 3.418,-0.803 7.003,0.194 9.471,2.689 2.488,2.481 3.498,6.045 2.695,9.457 l -7.925,33.66 c 1.845,2.187 3.665,4.387 5.444,6.634 l 34.551,-1.21 c 3.484,-0.141 6.814,1.565 8.76,4.488 1.954,2.915 2.254,6.627 0.79,9.817 l -14.306,31.387 c 1.398,2.534 2.769,5.076 4.094,7.657 l 34.042,5.538 c 3.464,0.555 6.38,2.869 7.717,6.113 1.338,3.23 0.917,6.928 -1.136,9.778 l -20.138,27.975 c 0.869,2.762 1.719,5.538 2.528,8.333 l 32.283,12.072 c 3.284,1.231 5.706,4.06 6.374,7.504 0.696,3.438 -0.455,6.975 -3.023,9.363 l -25.254,23.561 c 0.308,2.843 0.588,5.706 0.836,8.561 l 29.387,18.191 c 2.976,1.833 4.789,5.09 4.789,8.595 0,3.504 -1.806,6.761 -4.782,8.6"
             style="fill:#000000;fill-opacity:1;fill-rule:nonzero;stroke:none"
             id="path923"
             inkscape:connector-curvature="0" /></g></g></g></g></svg>