<svg xmlns="http://www.w3.org/2000/svg" xmlns:svg="http://www.w3.org/2000/svg" id="svg1468" width="2666.667" height="2666.667" version="1.1" viewBox="0 0 2666.667 2666.667" xml:space="preserve"><metadata id="metadata1474"/><defs id="defs1472"><clipPath id="clipPath1498" clipPathUnits="userSpaceOnUse"><path id="path1496" d="M 0,2000 H 2000 V 0 H 0 Z"/></clipPath></defs><g id="g1476" transform="matrix(1.3333333,0,0,-1.3333333,0,2666.6667)"><g id="g1478" transform="translate(0,1999.9998)"><path id="path1480" fill="#15c213" fill-opacity="1" fill-rule="nonzero" stroke="none" d="M 0,0 V -2000 L 2000,0 Z"/></g><g id="g1482" transform="translate(1999.9998,1999.9998)"><path id="path1484" fill="#c21325" fill-opacity="1" fill-rule="nonzero" stroke="none" d="M 0,0 -2000,-2000 H 0 Z"/></g><g id="g1486" transform="translate(1446.7188,1999.9998)"><path id="path1488" fill="#c2a813" fill-opacity="1" fill-rule="nonzero" stroke="none" d="m 0,0 -1445.719,-1351 v -649 h 609 l 1390,1350 V 0 Z"/></g><path id="path1490" fill="#999" fill-opacity="1" fill-rule="nonzero" stroke="none" d="M 1750,649.5 H 250 v 700 h 1500 z"/><g id="g1492"><g id="g1494" clip-path="url(#clipPath1498)"><g id="g1500" transform="translate(1658,999.5)"><path id="path1502" fill="#fff" fill-opacity="1" fill-rule="nonzero" stroke="none" d="m 0,0 c 0,-115.704 -93.796,-209.5 -209.5,-209.5 -115.704,0 -209.5,93.796 -209.5,209.5 0,115.704 93.796,209.5 209.5,209.5 C -93.796,209.5 0,115.704 0,0"/></g><g id="g1504" transform="translate(1484.4932,839.0312)"><path id="path1506" fill="#639" fill-opacity="1" fill-rule="nonzero" stroke="none" d="m 0,0 -196.462,196.461 c 16.497,73.486 82.484,128.975 160.469,128.975 55.489,0 103.479,-26.995 133.473,-67.486 L 74.985,238.453 c -25.495,34.493 -65.987,56.989 -110.978,56.989 -58.488,0 -107.979,-37.492 -127.475,-89.982 L 8.998,32.994 C 52.489,47.991 85.482,85.483 95.98,130.475 H 23.995 v 29.994 h 104.98 C 128.975,82.484 73.485,16.497 0,0 m -152.97,43.492 c -31.494,31.493 -47.991,73.486 -47.991,113.978 L -37.493,-4.499 c -41.991,1.5 -83.984,16.497 -115.477,47.991 m 116.977,326.935 c -115.478,0 -209.959,-94.481 -209.959,-209.958 0,-115.478 94.481,-209.959 209.959,-209.959 115.477,0 209.959,94.481 209.959,209.959 0,115.477 -94.482,209.958 -209.959,209.958"/></g><g id="g1508" transform="translate(1020.3545,1165.8672)"><path id="path1510" fill="#000" fill-opacity="1" fill-rule="nonzero" stroke="none" d="M 0,0 V -146.785 H 141.165 V -184.27 H 0 v -148.056 h -39.977 v 148.056 h -141.19 v 37.485 h 141.19 l 0,146.785 z"/></g><g id="g1512" transform="translate(704.8999,1000.8999)"><path id="path1514" fill="#99425b" fill-opacity="1" fill-rule="nonzero" stroke="none" d="m 0,0 c -0.5,-0.3 -18.3,2.7 -40.7,4.2 -18.2,1.2 -39.5,1.2 -56.7,0 -14,-0.9 -32.4,6.1 -34.6,-2.3 -8.2,-31.4 -26,-58.7 -48.5,-79.9 -17,-16 -36.4,-28.1 -57.4,-35.6 -25,12.8 -36.8,41.4 -26.2,66.4 8.4,19.9 18.3,41.7 0.1,46.7 -13.2,3.6 -20.5,-9 -25.5,-22.5 -9.7,-25.9 -28.2,-52.7 -33.5,-84.5 -5.6,-33.5 0,-69.1 29,-89.3 67.6,-46.8 140.9,29 218.2,48.1 28,6.9 58.8,5.8 83.5,20.1 18.5,10.7 30.8,28.5 34.2,48.5 C 47.5,-47.9 30.8,-16 0,0"/></g><g id="g1516" transform="translate(704.8999,1000.8999)"><path id="path1518" fill="none" stroke="#fff" stroke-dasharray="none" stroke-linecap="butt" stroke-linejoin="miter" stroke-miterlimit="4" stroke-opacity="1" stroke-width="20" d="m 0,0 c -0.5,-0.3 -18.3,2.7 -40.7,4.2 -18.2,1.2 -39.5,1.2 -56.7,0 -14,-0.9 -32.4,6.1 -34.6,-2.3 -8.2,-31.4 -26,-58.7 -48.5,-79.9 -17,-16 -36.4,-28.1 -57.4,-35.6 -25,12.8 -36.8,41.4 -26.2,66.4 8.4,19.9 18.3,41.7 0.1,46.7 -13.2,3.6 -20.5,-9 -25.5,-22.5 -9.7,-25.9 -28.2,-52.7 -33.5,-84.5 -5.6,-33.5 0,-69.1 29,-89.3 67.6,-46.8 140.9,29 218.2,48.1 28,6.9 58.8,5.8 83.5,20.1 18.5,10.7 30.8,28.5 34.2,48.5 C 47.5,-47.9 30.8,-16 0,0 Z"/></g><g id="g1520" transform="translate(572.8999,1002.7998)"><path id="path1522" fill="none" stroke="#fff" stroke-dasharray="none" stroke-linecap="butt" stroke-linejoin="miter" stroke-miterlimit="4" stroke-opacity="1" stroke-width="20" d="m 0,0 c -8.2,-31.399 -26,-58.7 -48.5,-79.899 -17,-16 -36.4,-28.101 -57.4,-35.601 -25,12.8 -36.8,41.4 -26.2,66.4 8.4,19.9 18.3,41.701 0.1,46.7 -13.2,3.6 -20.5,-8.999 -25.5,-22.499 -9.7,-25.901 -28.2,-52.701 -33.5,-84.5 -5.6,-33.5 0,-69.101 29,-89.301 67.6,-46.8 140.9,29 218.2,48.1 28,6.9 58.8,5.8 83.5,20.1 18.5,10.7 30.8,28.5 34.2,48.5 5.6,32.101 -11.1,64.101 -41.9,80"/></g><g id="g1524" transform="translate(634.8999,1127.7998)"><path id="path1526" fill="#99425b" fill-opacity="1" fill-rule="nonzero" stroke="none" d="m 0,0 54.3,-110.8 65.1,192 h -239 l 65,-191.6 z"/></g><g id="g1528" transform="translate(634.8999,1127.7998)"><path id="path1530" fill="none" stroke="#fff" stroke-dasharray="none" stroke-linecap="butt" stroke-linejoin="miter" stroke-miterlimit="4" stroke-opacity="1" stroke-width="20" d="m 0,0 54.3,-110.8 65.1,192 h -239 l 65,-191.6 z"/></g><g id="g1532" transform="translate(569,1043.2998)"><path id="path1534" fill="#99425b" fill-opacity="1" fill-rule="nonzero" stroke="none" d="m 0,0 c 22.588,0 40.9,-18.312 40.9,-40.9 0,-22.588 -18.312,-40.9 -40.9,-40.9 -22.588,0 -40.9,18.312 -40.9,40.9 C -40.9,-18.312 -22.588,0 0,0"/></g><g id="g1536" transform="translate(569,1043.2998)"><path id="path1538" fill="none" stroke="#fff" stroke-dasharray="none" stroke-linecap="butt" stroke-linejoin="miter" stroke-miterlimit="4" stroke-opacity="1" stroke-width="20" d="m 0,0 c 22.588,0 40.9,-18.312 40.9,-40.9 0,-22.588 -18.312,-40.9 -40.9,-40.9 -22.588,0 -40.9,18.312 -40.9,40.9 C -40.9,-18.312 -22.588,0 0,0 Z"/></g><g id="g1540" transform="translate(702.3999,1043.2998)"><path id="path1542" fill="#99425b" fill-opacity="1" fill-rule="nonzero" stroke="none" d="m 0,0 c 22.588,0 40.9,-18.312 40.9,-40.9 0,-22.588 -18.312,-40.9 -40.9,-40.9 -22.588,0 -40.9,18.312 -40.9,40.9 C -40.9,-18.312 -22.588,0 0,0"/></g><g id="g1544" transform="translate(702.3999,1043.2998)"><path id="path1546" fill="none" stroke="#fff" stroke-dasharray="none" stroke-linecap="butt" stroke-linejoin="miter" stroke-miterlimit="4" stroke-opacity="1" stroke-width="20" d="m 0,0 c 22.588,0 40.9,-18.312 40.9,-40.9 0,-22.588 -18.312,-40.9 -40.9,-40.9 -22.588,0 -40.9,18.312 -40.9,40.9 C -40.9,-18.312 -22.588,0 0,0 Z"/></g><g id="g1548" transform="translate(702.3999,1043.2998)"><path id="path1550" fill="none" stroke="#fff" stroke-dasharray="none" stroke-linecap="butt" stroke-linejoin="miter" stroke-miterlimit="4" stroke-opacity="1" stroke-width="20" d="m 0,0 c 22.588,0 40.9,-18.312 40.9,-40.9 0,-22.588 -18.312,-40.9 -40.9,-40.9 -22.588,0 -40.9,18.312 -40.9,40.9 C -40.9,-18.312 -22.588,0 0,0 Z"/></g><g id="g1552" transform="translate(435.1001,1043)"><path id="path1554" fill="#99425b" fill-opacity="1" fill-rule="nonzero" stroke="none" d="m 0,0 c 22.588,0 40.9,-18.312 40.9,-40.9 0,-22.588 -18.312,-40.9 -40.9,-40.9 -22.588,0 -40.9,18.312 -40.9,40.9 C -40.9,-18.312 -22.588,0 0,0"/></g><g id="g1556" transform="translate(435.1001,1043)"><path id="path1558" fill="none" stroke="#fff" stroke-dasharray="none" stroke-linecap="butt" stroke-linejoin="miter" stroke-miterlimit="4" stroke-opacity="1" stroke-width="20" d="m 0,0 c 22.588,0 40.9,-18.312 40.9,-40.9 0,-22.588 -18.312,-40.9 -40.9,-40.9 -22.588,0 -40.9,18.312 -40.9,40.9 C -40.9,-18.312 -22.588,0 0,0 Z"/></g></g></g></g></svg>